<svg id="Layer_1" data-name="Layer 1" xmlns="http://www.w3.org/2000/svg" viewBox="0 0 100 124.8"><defs><style>.cls-1{fill:#cfdde4;}.cls-2{fill:#cbcbcb;}.cls-3{fill:#b17449;}.cls-4{fill:#496b40;}.cls-5{fill:#577f4f;}</style></defs><title>zz plant</title><path class="cls-1" d="M73.73,91.06c0,.27-.06.53-.09.79-.05.44-.1.85-.14,1.25v.14q0,.34-.07.68c-1.28,11.67-6.57,28.82-22.17,28.79-6,0-11.07-4.2-14.07-9.42-3.44-6-4.9-13.16-5.86-20l-.13-.94q-.1-.74-.19-1.47l-.09-.74,0-.21h0c-.29-2.64.14-5.58,2.14-7.3a9.47,9.47,0,0,1,3.68-1.71,64.69,64.69,0,0,1,15.81-2.08c5.12-.14,10.27.08,15.13,1.85,2.25.82,4.54,2.09,5.66,4.3a5.57,5.57,0,0,1,.5,1.61A17.17,17.17,0,0,1,73.73,91.06Z"/><path class="cls-2" d="M69.79,83.29A15,15,0,0,0,64.38,81a45.36,45.36,0,0,0-17.32-.81,63.68,63.68,0,0,0-8.29,1.7c-1.31.35-7.83,2.74-5.38,4.81a2.33,2.33,0,0,0,.65.38,6.31,6.31,0,0,0,.79.24,75.33,75.33,0,0,0,21,2.26c3.69-.14,7.37-.48,11-.94a13,13,0,0,0,3-.58,3,3,0,0,0,1.49-.63,1.75,1.75,0,0,0,.33-.41,1.41,1.41,0,0,0,.16-1C72.12,84.78,70.93,83.85,69.79,83.29Z"/><path class="cls-3" d="M70.39,86.71a14.59,14.59,0,0,0-7-3.49,30.17,30.17,0,0,0-6.73-.52q-2.52,0-5,.24a40,40,0,0,0-11.79,1.57,27,27,0,0,0-4.67,1.87,5.77,5.77,0,0,0-1.09.74,6.31,6.31,0,0,0,.79.24,75.33,75.33,0,0,0,21,2.26c3.69-.14,7.37-.48,11-.94a13,13,0,0,0,3-.58,3,3,0,0,0,1.49-.63A7,7,0,0,0,70.39,86.71Z"/><path class="cls-4" d="M48.16,85.11a1.74,1.74,0,0,0-.06-.18,3.7,3.7,0,0,0-.8-1.14c-2.54-2.77-5.09-5.52-7.6-8.28l.35-.26A4.71,4.71,0,0,0,41.14,74a4.39,4.39,0,0,0,.35-3.79.8.8,0,0,0-1.2-.28,3.52,3.52,0,0,0-.62.67c-.23.27-.46.54-.68.83a7.5,7.5,0,0,0-1.13,2q-1.81-2-3.58-4.06c2.69-1.07,5-3.43,4.78-6.52-.09-1.21-.75-3.47-2.34-2.43a10.26,10.26,0,0,0-3.12,3.35,10.4,10.4,0,0,0-1.26,3.34q-1.57-1.87-3.09-3.78c2.9-2.07,4.78-5.75,3.24-9.25-.12-.27-.53-.28-.76-.2a6.5,6.5,0,0,0-4,3.15,7.32,7.32,0,0,0-.52,3.68q-.88-1.17-1.75-2.36l.19-.24,0,0,0,0a6.57,6.57,0,0,0,1-5.57c-.15-.54-.39-1.48-1-1.72-1.21-.53-2.12,1.63-2.35,2.49a5.69,5.69,0,0,0-.21,1.47,5.69,5.69,0,0,0-2.77-2.58,6.54,6.54,0,0,0-4.66-.6c-.11,0-.27.15-.26.29l0,.29a.3.3,0,0,0,.1.19,3.78,3.78,0,0,0,1.19,1.45,7.32,7.32,0,0,0,1.73,1.13,5.71,5.71,0,0,0,3.06.61l1.19,1.91A4.51,4.51,0,0,0,21,57a10.61,10.61,0,0,0-2.46.34,7.88,7.88,0,0,0-2.22.78c-.22.12-.16.34,0,.47,2.27,1.84,5.32,1.74,8.07,1.37l1.37,2.21a7.65,7.65,0,0,0-2-.07,7.54,7.54,0,0,0-2.4.64,7.7,7.7,0,0,0-1.13.63,3.69,3.69,0,0,0-.93.75c-.65.93,3.25,1.79,3.83,1.87a10.68,10.68,0,0,0,4.75-.42l1.64,2.64a8,8,0,0,0-3.47,0A8.09,8.09,0,0,0,23,69.57a4.32,4.32,0,0,0-2,2.69c0,.19.24.29.38.32A24,24,0,0,0,32,72.21c.89,1.54,1.81,3.22,2.79,4.89a9.69,9.69,0,0,0-3.12.58c-.31.11-.33.47,0,.57a8.57,8.57,0,0,0,4,.31c2.14,3.45,4.63,6.69,7.8,8.38a4.32,4.32,0,0,0,3.08.56A2.14,2.14,0,0,0,48.16,85.11Z"/><path class="cls-5" d="M74.86,67.47l-.09-.17a.64.64,0,0,0-.53.23A134.34,134.34,0,0,0,61.76,84.24a4,4,0,0,0-.93,2.18,1.71,1.71,0,0,0,1,1.38,3.08,3.08,0,0,0,3.72-.8c2-2.23,2.89-6.06,4.23-8.77q1.5-3,3.19-6C73.66,71,75.58,69,74.86,67.47Z"/><path class="cls-5" d="M90,37.49c-1.86.37-3.79.35-5.64.77a7.34,7.34,0,0,0-2.12.8l-.06,0,.2-.39v0a7.92,7.92,0,0,0,2.77-3.6c.76-1.68,1.49-3.39,1-5.26-.09-.35-.76-.27-.95-.08-2.08,2.14-4.2,4.71-4.16,7.82l0,.07-.39.8a19.62,19.62,0,0,0-.83-3.37,6.55,6.55,0,0,0-2.64-3.61c-.24-.14-.73-.16-.87.15a6.56,6.56,0,0,0,.26,5.92,9.05,9.05,0,0,0-1.78-1.77c-.2-.15-.77-.16-.87.15-.92,3,.25,7.82,3.91,8.28L77,45.81a6.64,6.64,0,0,0-.38-.77,9,9,0,0,0-4.9-4c-.27-.09-.86,0-.76.37.7,2.76,2.34,5.39,5.09,6.31L75,50a7.48,7.48,0,0,0-6.11-2.86c-.26,0-.68.19-.45.5a9.75,9.75,0,0,0,5.89,3.72l-1.51,3.07a3.27,3.27,0,0,0-.18-.88,5.55,5.55,0,0,0-1.77-2.31,4.58,4.58,0,0,0-2.72-.94,6.46,6.46,0,0,0-1.35,0,1.8,1.8,0,0,0-.56.17,1.34,1.34,0,0,0-.26.17l0,0h0a.31.31,0,0,0-.24.37v0a.26.26,0,0,0,0,.07.16.16,0,0,0,0,.12,20.57,20.57,0,0,0,3.1,3.84,7,7,0,0,0,2.71,1.85l-.77,1.58a5.82,5.82,0,0,0-1.34-1.7,12.24,12.24,0,0,0-3.61-2.33c-.27-.11-.72,0-.78.29a5.16,5.16,0,0,0,.41,2.69,8.21,8.21,0,0,0,1.12,2.2,2.84,2.84,0,0,0,1.88,1.23,2.8,2.8,0,0,0,1.22-.15L68.1,63.88a4.18,4.18,0,0,0-.63-1.53,3.54,3.54,0,0,0-1.39-1.22,2.28,2.28,0,0,0-1.86-.18c-.56.31-.23,1.43-.16,1.94a7.42,7.42,0,0,0,.66,2.22,4.52,4.52,0,0,0,1.8,2L60.3,79.73,59,82.42a14.5,14.5,0,0,0-1,2.16c-.37,1.23-.27,2.66,1.13,3.13,1.64.55,3-.75,4-1.94a24.81,24.81,0,0,0,2.62-4.35,95,95,0,0,0,3.77-9.8q.78-2.23,1.54-4.46a8.52,8.52,0,0,0,5.53-2.73c.22-.24-.1-.45-.31-.49a7.29,7.29,0,0,0-4.29.52l1-3a14.62,14.62,0,0,0,4.62-.6,14.14,14.14,0,0,0,2.44-1c.44-.23,1.51-.66.73-1.18a4.64,4.64,0,0,0-2.2-.55,8.05,8.05,0,0,0-2.33.18,8.31,8.31,0,0,0-2.51,1q.5-1.43,1-2.86a13,13,0,0,0,5.1.21,12.16,12.16,0,0,0,2.77-.78,6.08,6.08,0,0,0,1.16-.62c.24-.17.65-.41.66-.74a.3.3,0,0,0-.15-.23A4.86,4.86,0,0,0,83,54l-1.6-.29a12.77,12.77,0,0,0-3.21-.27,6.85,6.85,0,0,0-2.51.58l.7-1.85a9.9,9.9,0,0,0,7.46-.27l.33-.1c.51-.16,1.46-.45,1.75-.93s-.83-.92-1.19-1.06a8.93,8.93,0,0,0-7.57.53l-.07,0q.37-.94.76-1.87a24.36,24.36,0,0,0,5.38.18A6.58,6.58,0,0,0,85.87,48c.73-.47.21-1.12-.34-1.46a8.77,8.77,0,0,0-4.92-.83,8.11,8.11,0,0,0-1.7.24l.23-.54a7.24,7.24,0,0,0,4.52-.58,8.55,8.55,0,0,0,3.79-3.23c.24-.38-.59-.43-.76-.37-2.13.7-4.39,1-6.46,1.79q.41-.88.83-1.75a6.89,6.89,0,0,1,2.85,0,7.54,7.54,0,0,0,2.35-.1,7.06,7.06,0,0,0,3.91-2.32.29.29,0,0,0,0-.08,1.12,1.12,0,0,0,.37-.74,1.33,1.33,0,0,0,0-.23C90.66,37.52,90.16,37.46,90,37.49Z"/><path class="cls-4" d="M95.48,10.69a20.21,20.21,0,0,0-7.41.9l0,0a3,3,0,0,0,.49-.69,8.31,8.31,0,0,0,4.92-6.81c0-.38-.68-.38-.88-.23A21,21,0,0,0,87.7,9.55a1.83,1.83,0,0,0-.26.17A17,17,0,0,0,88.39,7c.3-1.15.78-2.68.16-3.8a.65.65,0,0,0-.95-.08,10.22,10.22,0,0,0-2.44,4.59c-.19,1-.33,3,.67,3.66L84.46,13a19.08,19.08,0,0,0-1.41-7.79c-.13-.35-.73-.27-.95-.08a5.56,5.56,0,0,0-1.47,2.4,10.05,10.05,0,0,0-.6,3.06,4.59,4.59,0,0,0,2.42,4.33.56.56,0,0,0,.32,0q-1.29,1.55-2.54,3.15a7.52,7.52,0,0,0-.75-3.2,8.53,8.53,0,0,0-3.05-4.15c-.23-.14-.88-.16-.88.23a17.13,17.13,0,0,0,.8,5.2,16.34,16.34,0,0,0,1,2.4,2.94,2.94,0,0,0,1.37,1.53q-1.19,1.58-2.32,3.2a24.88,24.88,0,0,0-2-7.55.64.64,0,0,0-.87-.15A4.48,4.48,0,0,0,72,18.07a13,13,0,0,0-.55,3.7,3,3,0,0,0,1.25,2.45,5.11,5.11,0,0,0,1.23.67c.28.11.76.17,1.11.33q-1,1.51-2,3.05A18.27,18.27,0,0,0,67,21.12a.69.69,0,0,0-.81.07,5.52,5.52,0,0,0-.05,6.36c1.35,1.93,3.53,2.42,5.73,2.64q-1.25,2-2.41,4.14a5.64,5.64,0,0,0-.89-2.79,9.44,9.44,0,0,0-4-3.24c-.6-.29-1.62-1-2.29-.56s-.52,1.74-.46,2.38a10.74,10.74,0,0,0,1.4,4.8,3.75,3.75,0,0,0,2.33,1.59l.33.16c.64.28,1.36.31,2,.54q-1.59,3-3,6.13a8.51,8.51,0,0,0-1-3.21,32.72,32.72,0,0,0-3.15-4.78.64.64,0,0,0-.95.08,12.67,12.67,0,0,0-1,2A7.41,7.41,0,0,0,58,42.71,2.21,2.21,0,0,0,58.34,44l0,0a2.71,2.71,0,0,0,.17.47,3.25,3.25,0,0,0,2.36,1.64,5.8,5.8,0,0,0,1.1.11l.7.15a7.81,7.81,0,0,0,.78.15q-.37.87-.73,1.74l-.41,1-.08-.15a6.08,6.08,0,0,0-1.89-2c-1.76-1.21-3.9-1.64-5.78-2.62-.26-.14-.83-.16-.88.23a6.4,6.4,0,0,0,4,6.78,6.87,6.87,0,0,0,3.63.38c-.83,2.31-1.58,4.63-2.26,7a35.1,35.1,0,0,0-2.24-3,.68.68,0,0,0-.71-.12A2.11,2.11,0,0,0,55,58.3a3.9,3.9,0,0,0,2.44,2.39c.33.14.69.29,1,.41C56.6,68,55.27,75,54,82.23A6.7,6.7,0,0,0,54.13,86a2.5,2.5,0,0,0,3.8,1,5.13,5.13,0,0,0,1.68-2.23c1.14-2.6,1.07-5.5,1.34-8.28.29-2.93.63-5.85,1.06-8.77q.41-2.79.93-5.55a5,5,0,0,0,2.42-1.38A2.33,2.33,0,0,0,66,58.6c-.3-.85-1.26-.53-1.84-.22l-.53.29q.5-2.29,1.08-4.56c2,.35,4,.37,5.59-1a7.72,7.72,0,0,0,2.52-5c0-.29-.48-.36-.66-.32a47.77,47.77,0,0,0-5.72,1.56l-.47.17q.58-1.94,1.25-3.85l1.54-.18a11.1,11.1,0,0,0,7.11-3.29c.22-.24-.1-.44-.31-.49a10.8,10.8,0,0,0-7.27,1q.89-2.3,1.89-4.54a10.44,10.44,0,0,0,4.23.47,10.14,10.14,0,0,0,4.61-1.59c.27-.18.12-.41-.1-.52a10.89,10.89,0,0,0-7.73-.54q1.2-2.51,2.55-5c2.78,1.95,6.45,1.68,9.45.26.32-.15.32-.42,0-.57-2.6-1.23-5.73-2.29-8.51-1.33q.91-1.58,1.89-3.13a6.78,6.78,0,0,0,3.29,1.13,12.13,12.13,0,0,0,4.59-.2,7.36,7.36,0,0,0,1-.36,4.85,4.85,0,0,0,.68-.32A1.7,1.7,0,0,0,87,26a.26.26,0,0,0-.08-.4,15.66,15.66,0,0,0-2.51-1.33,11.13,11.13,0,0,0-3-.64A5.77,5.77,0,0,0,78,24.2q1-1.53,2.11-3a7,7,0,0,0,4.25,1.12,11.35,11.35,0,0,0,5-1.22.26.26,0,0,0,0-.47,10.32,10.32,0,0,0-7.91-1.26q1.27-1.66,2.6-3.26A12.46,12.46,0,0,0,88,17.47,8.77,8.77,0,0,0,92.58,17c.24,0,.56-.16.46-.38a.27.27,0,0,0-.13-.21,4.73,4.73,0,0,0-3.54-1.93,11.88,11.88,0,0,0-4.12.22q1-1.1,1.94-2.16a9.64,9.64,0,0,0,8.65-1.27C96.24,11,95.78,10.71,95.48,10.69Z"/><path class="cls-5" d="M51.79,82.15l-.11-.32C50.39,78.25,48.47,75,47,71.5s-2.91-7.3-4.38-10.91A9.34,9.34,0,0,0,48,56.87a13,13,0,0,0,1.79-3.65,9.81,9.81,0,0,0,.57-4.33c0-.34-.5-.4-.77-.31-3.53,1.23-7.36,2.71-9.48,5.93-.75-1.72-1.53-3.44-2.35-5.14a10.23,10.23,0,0,0,6.75-9.81c0-.29-.43-.38-.65-.34a15.32,15.32,0,0,0-5.94,2.37,7.53,7.53,0,0,0-2.66,2.87q-.49-.91-1-1.82-.66-1.16-1.35-2.32a8.4,8.4,0,0,0,5.81-8.18c0-.36-.53-.37-.77-.31A9.24,9.24,0,0,0,31.47,38q-1.11-1.77-2.28-3.52a7,7,0,0,0,4-3.42,6.76,6.76,0,0,0,0-5.87.63.63,0,0,0-.75-.22c-3,1.13-4.54,4-5,7.06q-1.31-1.82-2.69-3.58h0a.55.55,0,0,0,.42-.18,7.74,7.74,0,0,0,3.67-2.15c1.16-1.34,1.17-2.88.93-4.56a.47.47,0,0,0-.51-.35c-3.1.12-5.28,2.63-5.93,5.49q-1.08-1.29-2.21-2.54l.14,0a.37.37,0,0,0,.25-.23h0l.27-.15a5.57,5.57,0,0,0,.51-.36,5.46,5.46,0,0,0,1.9-2.81,5.48,5.48,0,0,0-.89-4.67.69.69,0,0,0-.81-.09,7.43,7.43,0,0,0-3.6,6q-1-1.06-2.14-2.07a.29.29,0,0,0,.05-.14,5.65,5.65,0,0,0,2.59-2.75A4.15,4.15,0,0,0,18.84,13a.69.69,0,0,0-.81-.09,4.71,4.71,0,0,0-2.58,2.9,7.56,7.56,0,0,0-.16,2.54l-1-.84-.39-.31A5.17,5.17,0,0,0,14.27,14c-.22-.79-.94-2-1.91-1.85s-1.42,1.54-1.54,2.3a3.08,3.08,0,0,0,0,1A7.92,7.92,0,0,0,8,13.83a8.29,8.29,0,0,0-4.29-.19,2.07,2.07,0,0,0-1.09.42c-.88,1,3,2.47,3.62,2.65a6.41,6.41,0,0,0,3.93,0q.84.61,1.65,1.25a8.21,8.21,0,0,0-2.16.15c-.59.12-2.48.43-1.8,1.4.55.78,2,1,2.83,1a4.58,4.58,0,0,0,2.69-1.24l.78.66A9.64,9.64,0,0,0,9.09,23.3c-.17.19,0,.36.17.46a4.67,4.67,0,0,0,2.78.48A5.05,5.05,0,0,0,14.66,26a5.37,5.37,0,0,0,3.75-.33,9.33,9.33,0,0,1,1.13-.62q1.11,1.2,2.16,2.44a17.81,17.81,0,0,0-9.52,1.2c-.19.07-.35.25-.2.45a7.24,7.24,0,0,0,9.82,1.38c.2-.15.4-.3.59-.46s.29-.34.46-.49a.7.7,0,0,0,.44-.12q1.41,1.79,2.71,3.66a18.07,18.07,0,0,0-3.12-.37c-.81,0-1.62,0-2.43,0a7.79,7.79,0,0,0-2.22.28c-1.51.59.29,2.12,1,2.55a7,7,0,0,0,4.06,1.16,7.15,7.15,0,0,0,4.2-1.53q1.05,1.62,2,3.29a22.58,22.58,0,0,0-9,.79c-.74.18-.71.64-.39,1.23a4.92,4.92,0,0,0,1.27,1.5,7,7,0,0,0,4.09,1.43,8.38,8.38,0,0,0,2.67-.32,7.92,7.92,0,0,0,1.24-.48c.34-.16.68-.4,1-.56l.34-.12.07,0a.63.63,0,0,0,.24-.1l.24-.09q1.2,2.26,2.28,4.6a16.23,16.23,0,0,0-3.27-.78q-1.42-.21-2.84-.36L26,45.15a2.79,2.79,0,0,0-1.28,0c-.68.29-.14,1.12.09,1.55a10.28,10.28,0,0,0,4.85,4.62,5,5,0,0,0,2.86.45,10.22,10.22,0,0,0,2.87-1h0q1.1,2.7,2,5.46a22.93,22.93,0,0,0-5.82-3.4c-.25-.1-.88-.05-.77.35.66,2.56,1.38,5.25,3.27,7.2a6.89,6.89,0,0,0,5.26,2.13q.7,2.58,1.27,5.18c-.61,0-1.22,0-1.84,0s-1.85,0-1.49.95c.28.69,1.28,1,1.93,1.21a6.58,6.58,0,0,0,1.88.17q.19,1,.37,2,.51,3,.86,5.93a20.73,20.73,0,0,0,1.17,5.66,6.28,6.28,0,0,0,4.06,3.84c1.88.45,4.15-.64,4.54-2.54A5.21,5.21,0,0,0,51.79,82.15Z"/><path class="cls-5" d="M51.07,84.48q0-.17,0-.34c-.3-3.78.1-7.54,0-11.31-.16-3.94-.37-7.85-.53-11.74a9.34,9.34,0,0,1-6.4-1.17,13,13,0,0,1-3.13-2.58,9.81,9.81,0,0,1-2.31-3.7c-.09-.33.29-.57.57-.6,3.72-.34,7.82-.58,11.08,1.48,0-1.88,0-3.76,0-5.65a10.23,10.23,0,0,1-10.2-6.13c-.11-.27.23-.52.45-.58a15.32,15.32,0,0,1,6.39-.3,7.53,7.53,0,0,1,3.61,1.51q.07-1,.16-2.07.12-1.33.27-2.67a8.4,8.4,0,0,1-8.67-5c-.14-.33.33-.55.57-.6a9.24,9.24,0,0,1,8.43,2.89q.27-2.07.62-4.14a7,7,0,0,1-5.06-1.46,6.76,6.76,0,0,1-2.46-5.33c0-.28.34-.49.6-.51,3.24-.23,5.81,1.79,7.45,4.37q.43-2.2,1-4.38h0a.55.55,0,0,1-.45,0A7.74,7.74,0,0,1,48.73,24c-1.61-.75-2.26-2.14-2.73-3.77a.47.47,0,0,1,.32-.53c2.87-1.18,5.9.21,7.67,2.55q.45-1.63,1-3.23l-.14,0a.37.37,0,0,1-.32-.11h0l-.31,0a5.57,5.57,0,0,1-.61-.12A5.46,5.46,0,0,1,50.66,17a5.48,5.48,0,0,1-1.12-4.62c.06-.27.46-.44.7-.42a7.43,7.43,0,0,1,5.77,4q.52-1.39,1.09-2.76a.29.29,0,0,1-.11-.11,5.65,5.65,0,0,1-3.49-1.43,4.15,4.15,0,0,1-1-3.73.69.69,0,0,1,.7-.42,4.71,4.71,0,0,1,3.55,1.58,7.56,7.56,0,0,1,1.2,2.25c.18-.39.36-.78.55-1.17l.23-.44A5.17,5.17,0,0,1,57,6.9c-.13-.81,0-2.2,1-2.48s1.93.81,2.35,1.45a3.08,3.08,0,0,1,.4.9,7.92,7.92,0,0,1,1.89-2.6,8.29,8.29,0,0,1,3.82-1.95,2.07,2.07,0,0,1,1.16-.07c1.22.55-1.74,3.51-2.2,3.91a6.41,6.41,0,0,1-3.58,1.63q-.51.9-1,1.82a8.21,8.21,0,0,1,2-.75c.59-.13,2.44-.63,2.22.53-.18.94-1.37,1.71-2.18,2.05a4.58,4.58,0,0,1-3,0l-.43.93a9.64,9.64,0,0,1,6.07,1c.23.1.16.33,0,.49a4.67,4.67,0,0,1-2.33,1.58A5.05,5.05,0,0,1,61.66,18a5.37,5.37,0,0,1-3.55,1.25,9.33,9.33,0,0,0-1.29-.1q-.51,1.55-1,3.12A17.81,17.81,0,0,1,65,19.44c.2,0,.43.08.37.33A7.24,7.24,0,0,1,57,25.09c-.24,0-.49-.11-.73-.18s-.41-.19-.62-.26a.7.7,0,0,1-.45.07q-.54,2.21-.95,4.46A18.07,18.07,0,0,1,57,27.55c.73-.36,1.48-.67,2.23-1a7.79,7.79,0,0,1,2.14-.67c1.62-.09.61,2,.19,2.72a7,7,0,0,1-3.22,2.74,7.15,7.15,0,0,1-4.46.34q-.29,1.91-.48,3.83a22.58,22.58,0,0,1,8.5-3c.75-.14.91.29.87,1a4.92,4.92,0,0,1-.54,1.89,7,7,0,0,1-3.13,3,8.38,8.38,0,0,1-2.56.81,7.92,7.92,0,0,1-1.33.08c-.38,0-.78-.08-1.17-.08l-.36,0H53.6a.63.63,0,0,1-.26,0l-.26,0q-.15,2.56-.17,5.13a16.22,16.22,0,0,1,2.66-2.07q1.2-.78,2.44-1.51l1.23-.71a2.79,2.79,0,0,1,1.16-.52c.74,0,.59,1,.56,1.45a10.28,10.28,0,0,1-2.51,6.21A5,5,0,0,1,56,48.87a10.22,10.22,0,0,1-3,.23h0q.11,2.91.39,5.82a22.93,22.93,0,0,1,3.9-5.5c.19-.2.78-.41.85,0,.46,2.6.91,5.35,0,7.91a6.89,6.89,0,0,1-3.91,4.11q.42,2.64,1,5.24c.54-.28,1.11-.52,1.68-.75s1.7-.73,1.75.25c0,.74-.73,1.48-1.25,1.9a6.58,6.58,0,0,1-1.64.93q.24,1,.49,2,.76,2.9,1.67,5.75a20.73,20.73,0,0,1,1.28,5.64,6.28,6.28,0,0,1-2.11,5.18c-1.53,1.18-4,1.13-5.18-.43A5.21,5.21,0,0,1,51.07,84.48Z"/><path class="cls-4" d="M53.19,83.34q-.42-1.43-.85-2.85-.89-3-1.81-5.94a7.76,7.76,0,0,0,2.17-1,2.72,2.72,0,0,0,.81-2.95c-.06-.31-.5-.31-.72-.19q-1.3.74-2.54,1.57a9,9,0,0,0,.68-3.16.25.25,0,0,0-.2-.24,6.24,6.24,0,0,0,2-1.32c1.51-1.54,1.55-3.69,1.48-5.71,0-.27-.45-.32-.63-.23a21.74,21.74,0,0,0-5,3,16.27,16.27,0,0,0,.75-1.89,17.52,17.52,0,0,0,.55-2.12,6.43,6.43,0,0,0,2.5-2.49,4.85,4.85,0,0,0,.56-1.82c.08-.79-.51-.85-1.16-.76a14.27,14.27,0,0,0-1.48.26c0-.23,0-.46,0-.69s-.24-.28-.46-.27a.53.53,0,0,0-.39,0A22.54,22.54,0,0,0,46.34,57a5.6,5.6,0,0,0-1.18,1l-.2-.58c.14-.17.27-.33.39-.47a11,11,0,0,0,1.31-2.23c.12-.27.24-.55.36-.84s.41-.31.61-.48a8.34,8.34,0,0,0,1.53-1.76,3.26,3.26,0,0,0,.72-2.44c0-.18-.38-.22-.52-.19-.57.13-1.14.27-1.7.42a1.32,1.32,0,0,0,0-.13,1.75,1.75,0,0,0-.12-.66.92.92,0,0,0-1-.68,3.51,3.51,0,0,0-1.28.72,9.89,9.89,0,0,0-1,.8,8.74,8.74,0,0,0-1.22,1.29l-.26.33-.3-.86c.13-.16.26-.32.37-.48a9.55,9.55,0,0,0,.91-1.55l.13-.06A6.1,6.1,0,0,0,45.55,47,5,5,0,0,0,47,43.49c0-.94-1.2-.59-2.1-.19a2,2,0,0,0-.18-.88c-.11-.22-.42-.21-.62-.16a3.21,3.21,0,0,0-1.13.6l-.13.05a7,7,0,0,0,1.67-5.27c0-.33-.52-.29-.72-.19l-.74.39A2.74,2.74,0,0,0,43,35.91a.51.51,0,0,0-.62-.16h0a.55.55,0,0,0-.22,0,8.63,8.63,0,0,0-2,1.26,2.58,2.58,0,0,0,.13-.43,6.83,6.83,0,0,0-.63-4.29c-.14-.27-.57-.23-.77-.06a7,7,0,0,0-.82.82,8,8,0,0,0-2.06,2.62,8,8,0,0,0-3.85-5c-.22-.12-.67-.12-.72.19-.36,2.42,1.56,4.17,3.49,5.25a2.76,2.76,0,0,0,0,.32,7.28,7.28,0,0,0,.35,1.43c-.29.7-.55,1.54-.1,2.09a1.28,1.28,0,0,0,1.12.41q.45,1.09.87,2.18a4.53,4.53,0,0,0,0,1.28,1.22,1.22,0,0,0,.4.81A1.08,1.08,0,0,0,38,45q.41,1.16.8,2.32a8.28,8.28,0,0,0-.48,1.84c-.1.72-.22,1.7.37,2.26a1.69,1.69,0,0,0,1.52.35q.37,1.22.71,2.45a11.08,11.08,0,0,0-.66,2.07,2.39,2.39,0,0,0,.48,2.33,1.67,1.67,0,0,0,.49.3,1.61,1.61,0,0,0,1,.23q.34,1.29.66,2.58a10.59,10.59,0,0,0-.85,3.43,2.43,2.43,0,0,0,1,2.4,2.32,2.32,0,0,0,1.39.28l0,.08q.56,2.32,1.09,4.64a6.7,6.7,0,0,0-.41,1.28,2,2,0,0,0,.16,1.58,1.24,1.24,0,0,0,1,.48c.76,3.36,1.51,6.73,2.27,10.1a4.74,4.74,0,0,0,.83,2.07,2.42,2.42,0,0,0,2.55.72A3,3,0,0,0,53.76,86,10.73,10.73,0,0,0,53.19,83.34ZM46.61,48.51l0,.06h-.12Z"/><path class="cls-2" d="M36.83,93.71c-.26-.41-1-.95-1.39-.46a.36.36,0,0,0-.26.28,2.76,2.76,0,0,0,.5,2.1.87.87,0,0,0,1.41-.2A2.1,2.1,0,0,0,36.83,93.71Z"/><path class="cls-2" d="M44.77,93.84a.41.41,0,0,0-.24.21.4.4,0,0,0-.32.29,2,2,0,0,0,.41,1.56,1,1,0,0,0,1.48.21C46.86,95.37,45.84,93.4,44.77,93.84Z"/><path class="cls-2" d="M55.16,95.48a1.69,1.69,0,0,0-.79-1.08.73.73,0,0,0-.37-.1c-.3-.11-.78,0-.81.29-.08.82.46,2.36,1.55,2C55.19,96.38,55.25,95.9,55.16,95.48Z"/><path class="cls-2" d="M62.76,94.55a1.19,1.19,0,0,0-1.57-.31l0,0c-.16,0-.28.15-.28.3a2.22,2.22,0,0,0,.61,1.62A1,1,0,0,0,63,95.93,1.31,1.31,0,0,0,62.76,94.55Z"/><path class="cls-2" d="M70.55,94.16a1.13,1.13,0,0,0-1.64-.74l-.09.07c-.18,0-.33.15-.33.32,0,.68.26,1.73,1.1,1.76A1,1,0,0,0,70.55,94.16Z"/><path class="cls-2" d="M44.1,116.25c-.39-.29-1.33-.32-1.37.33a.22.22,0,0,0-.07.2,1.82,1.82,0,0,0,.73,1.25.82.82,0,0,0,1.31-.46A1.47,1.47,0,0,0,44.1,116.25Z"/><path class="cls-2" d="M49.83,115.85c-.48-.17-1.47,0-1.35.7a.36.36,0,0,0,.23.27,1.44,1.44,0,0,0,.83,1,1,1,0,0,0,.89-.07,1,1,0,0,0,.32-.7A1.29,1.29,0,0,0,49.83,115.85Z"/><path class="cls-2" d="M55.83,116.49c-.28-.48-1.11-1.14-1.61-.55a.71.71,0,0,0-.16.42.22.22,0,0,0-.07.12,1.19,1.19,0,0,0,1,1.35A.85.85,0,0,0,55.83,116.49Z"/><path class="cls-2" d="M61.49,116.14a1.16,1.16,0,0,0-1.77-.26,1.1,1.1,0,0,0,.42,1.58.82.82,0,0,0,.46.1.84.84,0,0,0,.45,0C61.75,117.48,61.82,116.64,61.49,116.14Z"/></svg>